<?xml version="1.0" encoding="UTF-8"?>
<svg xmlns="http://www.w3.org/2000/svg" xmlns:xlink="http://www.w3.org/1999/xlink" version="1.1" id="Ebene_1" x="0px" y="0px" viewBox="0 0 500 253.882" xml:space="preserve">
<g>
	<path fill="#FFFFFF" d="M100.366,53.15C44.934,53.15,0,98.085,0,153.516c0,55.43,44.934,100.366,100.366,100.366   c55.428,0,100.366-44.936,100.366-100.366C200.732,98.085,155.794,53.15,100.366,53.15z M100.366,236   c-45.557,0-82.486-36.93-82.486-82.484c0-45.555,36.928-82.486,82.486-82.486c45.554,0,82.482,36.93,82.482,82.486   C182.848,199.07,145.92,236,100.366,236z"></path>
	<path fill="#FFFFFF" d="M128.067,96.552c-8.828-4.723-18.795-7.217-28.86-7.217c-33.771,0-61.242,27.473-61.242,61.243   c0,0.333,0.02,0.659,0.041,0.987l0.024,0.385c0.044,2.085,1.67,3.796,3.755,3.946c0.098,0.007,0.193,0.01,0.291,0.01   c1.96,0,3.66-1.418,3.985-3.381c3.015-18.131,14.78-34.369,31.476-43.434c14.715-7.99,32.311-9.766,47.804-4.904   c0.429,0.135,0.855,0.183,1.291,0.186c2.227-0.003,4.035-1.812,4.035-4.042C130.665,98.607,129.584,97.133,128.067,96.552z"></path>
	<path fill="#FFFFFF" d="M399.855,53.15c-55.428,0-100.366,44.934-100.366,100.366c0,55.43,44.938,100.366,100.366,100.366   c55.432,0,100.366-44.936,100.366-100.366C500.221,98.085,455.286,53.15,399.855,53.15z M399.855,236   c-45.554,0-82.482-36.93-82.482-82.484c0-45.555,36.928-82.486,82.482-82.486c45.557,0,82.486,36.93,82.486,82.486   C482.34,199.07,445.412,236,399.855,236z"></path>
	<path fill="#FFFFFF" d="M398.591,39.339c-10.264-10.096-22.908-21.362-34.318-28.206c-22.6-13.561-43.099-9.051-54.499,3.892   c-11.087-5.629-24.581-7.51-39.596-8.843C264.454,2.283,257.544,0,250.097,0c-7.449,0-14.361,2.285-20.084,6.185   c-15.005,1.333-28.488,3.216-39.565,8.84c-11.4-12.943-31.898-17.453-54.499-3.892c-11.41,6.844-24.054,18.111-34.318,28.206   c62.492,0.681,112.945,51.525,112.945,114.177c0,7.336-0.72,14.501-2.041,21.453c9.98-10.038,26.285-31.9,19.893-63.271   c-2.44-11.981-5.678-23.148-9.294-33.417c3.549-1.612,8.054-7.626,11.996-10.155c4.558,2.109,9.616,3.319,14.967,3.319   c5.357,0,10.422-1.212,14.983-3.326c3.946,2.523,8.456,8.547,12.008,10.161c-3.616,10.269-6.854,21.436-9.294,33.417   c-6.391,31.371,9.913,53.233,19.893,63.271c-1.322-6.952-2.041-14.117-2.041-21.453C285.645,90.864,336.099,40.02,398.591,39.339z    M250.097,58.73c-12.708,0-23.008-10.3-23.008-23.008c0-12.708,10.3-23.008,23.008-23.008c12.708,0,23.008,10.3,23.008,23.008   C273.105,48.43,262.805,58.73,250.097,58.73z"></path>
	<path fill="#FFFFFF" d="M426.856,96.552c-8.828-4.723-18.795-7.217-28.86-7.217c-33.769,0-61.242,27.473-61.242,61.243   c0,0.333,0.02,0.659,0.042,0.987l0.022,0.385c0.044,2.085,1.671,3.796,3.755,3.946c0.098,0.007,0.194,0.01,0.291,0.01   c1.962,0,3.66-1.418,3.986-3.381c3.013-18.131,14.778-34.369,31.474-43.434c14.715-7.99,32.311-9.766,47.805-4.904   c0.428,0.135,0.853,0.183,1.289,0.186c2.229-0.003,4.035-1.812,4.035-4.042C429.455,98.607,428.375,97.133,426.856,96.552z"></path>
</g>
</svg>
