<?xml version="1.0" encoding="UTF-8"?>
<svg xmlns="http://www.w3.org/2000/svg" xmlns:xlink="http://www.w3.org/1999/xlink" version="1.1" id="Ebene_1" x="0px" y="0px" viewBox="0 0 23.639 23.639" xml:space="preserve">
<g>
	<g>
		<path fill="#1B38CE" d="M11.819,23.639c-3.111,0-3.511,0-4.664-0.097c-4.411-0.2-6.859-2.647-7.061-7.078    C0,15.33,0,14.931,0,11.819s0-3.511,0.097-4.664c0.2-4.411,2.648-6.859,7.078-7.061C8.308,0,8.708,0,11.819,0s3.511,0,4.664,0.097    c4.411,0.2,6.858,2.648,7.06,7.078c0.096,1.133,0.096,1.533,0.096,4.645s0,3.511-0.097,4.664c-0.2,4.411-2.647,6.858-7.078,7.06    C15.33,23.639,14.931,23.639,11.819,23.639z M11.819,1C8.745,1,8.35,1,7.239,1.093C3.332,1.271,1.271,3.332,1.094,7.22    C1,8.35,1,8.745,1,11.819s0,3.47,0.093,4.58c0.178,3.907,2.239,5.969,6.127,6.146c1.13,0.094,1.525,0.094,4.6,0.094    s3.47,0,4.58-0.093c3.907-0.178,5.969-2.239,6.146-6.127c0.094-1.13,0.094-1.525,0.094-4.6s0-3.469-0.093-4.581    c-0.178-3.907-2.239-5.968-6.127-6.145C15.289,1,14.894,1,11.819,1z"></path>
	</g>
	<g>
		<path fill="#1B38CE" d="M11.819,18.168c-3.5,0-6.348-2.848-6.348-6.349c0-3.5,2.848-6.348,6.348-6.348    c3.501,0,6.349,2.848,6.349,6.348C18.168,15.32,15.32,18.168,11.819,18.168z M11.819,6.471c-2.949,0-5.348,2.399-5.348,5.348    s2.399,5.349,5.348,5.349s5.349-2.399,5.349-5.349S14.769,6.471,11.819,6.471z"></path>
	</g>
	<g>
		<path fill="#1B38CE" d="M18.253,6.603c-1.038,0-1.82-0.783-1.82-1.82c0-1.038,0.782-1.821,1.82-1.821s1.82,0.783,1.82,1.821    C20.073,5.82,19.291,6.603,18.253,6.603z M18.253,3.962c-0.476,0-0.82,0.345-0.82,0.821c0,0.475,0.345,0.82,0.82,0.82    s0.82-0.345,0.82-0.82C19.073,4.307,18.729,3.962,18.253,3.962z"></path>
	</g>
</g>
</svg>
