<?xml version="1.0" encoding="UTF-8"?>
<svg xmlns="http://www.w3.org/2000/svg" xmlns:xlink="http://www.w3.org/1999/xlink" version="1.1" id="Ebene_1" x="0px" y="0px" viewBox="0 0 64.403 53.771" xml:space="preserve">
<g>
	<g>
		<path fill="#E84E1B" d="M63.78,38.717c-2.435-8.03-10.25-11.437-13.3-12.483c-0.226,0.314-0.634,0.799-0.896,1.092L60.166,53.82    C60.166,53.82,66.648,48.172,63.78,38.717z"></path>
	</g>
</g>
<g>
	<g>
		<g>
			<path fill="#30BCE6" d="M50.363,18.722c-0.084,0-0.17-0.017-0.251-0.054c-0.307-0.139-0.445-0.498-0.307-0.806     c0.065-0.145,1.647-3.564,6.787-4.126c0.334-0.036,0.638,0.206,0.675,0.542c0.037,0.336-0.206,0.639-0.542,0.675     c-4.41,0.482-5.749,3.292-5.804,3.411C50.819,18.589,50.596,18.722,50.363,18.722z"></path>
		</g>
	</g>
</g>
<g>
	<g>
		<g>
			<path fill="#30BCE6" d="M50.365,15.285c-0.185,0-0.368-0.084-0.488-0.242c-0.204-0.269-0.152-0.652,0.116-0.856     c0.098-0.076,2.346-1.866,1.454-5.357c-0.084-0.328,0.114-0.661,0.441-0.745c0.328-0.084,0.661,0.114,0.745,0.441     c1.1,4.303-1.775,6.542-1.898,6.635C50.623,15.245,50.493,15.285,50.365,15.285z"></path>
		</g>
	</g>
</g>
<g>
	<g>
		<linearGradient id="SVGID_1_" gradientUnits="userSpaceOnUse" x1="7.1502" y1="16.6667" x2="40.1961" y2="32.0763">
			<stop offset="0" style="stop-color:#6DC2BC"></stop>
			<stop offset="0.6777" style="stop-color:#30BCE6"></stop>
			<stop offset="1" style="stop-color:#6876B7"></stop>
		</linearGradient>
		<path fill="url(#SVGID_1_)" d="M32.298,46.845c13.343-18.71,7.496-33.407,7.496-33.407s-10.505-0.099-17.567,0.198    c-10.336,0.435-16.694,6.5-16.694,6.5c1.502-1.154,3.152-2.279,5.838-3.195c9.909-3.337,20.648,1.991,23.985,11.9    c1.718,5.101,1.14,10.421-1.177,14.838"></path>
	</g>
</g>
<g>
	<g>
		
			<linearGradient id="SVGID_00000081645071199946681840000014811304192917106055_" gradientUnits="userSpaceOnUse" x1="6.0949" y1="35.9776" x2="26.1528" y2="47.5581">
			<stop offset="0" style="stop-color:#6DC2BC"></stop>
			<stop offset="0.6777" style="stop-color:#30BCE6"></stop>
			<stop offset="1" style="stop-color:#5D84C1"></stop>
		</linearGradient>
		<path fill="url(#SVGID_00000081645071199946681840000014811304192917106055_)" d="M27.189,38.523    c-1.61-4.371-6.107-7.307-11.189-7.307h0c-1.288,0-2.566,0.192-3.798,0.572c-3.114,0.959-5.667,3.07-7.005,5.792    c-1.199,2.44-1.339,5.171-0.394,7.689c0.565,1.506,1.506,2.838,2.716,3.933c2.84,1.964,6.265,3.088,9.892,3.088    c0.421,0,0.84-0.018,1.259-0.048c0.397-0.066,0.791-0.147,1.181-0.246c2.981-0.76,5.389-2.636,6.781-5.282    C27.967,44.173,28.17,41.188,27.189,38.523z"></path>
	</g>
</g>
<g>
	<g>
		
			<linearGradient id="SVGID_00000134221271444818961390000010115314584148226733_" gradientUnits="userSpaceOnUse" x1="2.6835" y1="25.5899" x2="32.8255" y2="42.9924">
			<stop offset="0" style="stop-color:#6DC2BC"></stop>
			<stop offset="0.6777" style="stop-color:#30BCE6"></stop>
			<stop offset="1" style="stop-color:#6876B7"></stop>
		</linearGradient>
		<path fill="url(#SVGID_00000134221271444818961390000010115314584148226733_)" d="M17.415,17.476    c-1.884,0-3.753,0.308-5.556,0.915c-4.405,1.483-7.969,4.594-10.035,8.757s-2.387,8.883-0.903,13.288    c0.614,1.824,1.511,3.493,2.629,4.967c-2.108-6.135,1.583-12.722,8.291-14.787c1.378-0.424,2.78-0.626,4.157-0.626    c5.437,0,10.508,3.137,12.339,8.109c1.616,4.388,0.321,9.2-2.999,12.279c3.31-1.684,5.982-4.374,7.662-7.761    c2.066-4.164,2.387-8.883,0.903-13.288c-2.387-7.09-9.014-11.853-16.488-11.853"></path>
	</g>
</g>
<path fill="#30BCE6" d="M51.407,0c-2.409,0-4.362,1.953-4.362,4.362c0,2.409,1.953,4.362,4.362,4.362s4.362-1.953,4.362-4.362  C55.769,1.953,53.816,0,51.407,0z M52.576,5.943c-1.301,0-2.356-1.055-2.356-2.357s1.055-2.356,2.356-2.356s2.357,1.055,2.357,2.356  S53.878,5.943,52.576,5.943z"></path>
<path fill="#30BCE6" d="M60.493,9.674c-2.158,0-3.908,1.75-3.908,3.908s1.75,3.908,3.908,3.908s3.908-1.75,3.908-3.908  S62.651,9.674,60.493,9.674z M61.279,15.285c-1.301,0-2.356-1.055-2.356-2.357c0-1.301,1.055-2.356,2.356-2.356  s2.357,1.055,2.357,2.356C63.636,14.23,62.581,15.285,61.279,15.285z"></path>
<g>
	<g>
		<path fill="none" stroke="#DAE067" stroke-width="3" stroke-miterlimit="10" d="M34.178,43.679"></path>
	</g>
</g>
<g>
	<g>
		
			<linearGradient id="SVGID_00000155853042168030272170000015333348998719906228_" gradientUnits="userSpaceOnUse" x1="43.8057" y1="21.3434" x2="51.786" y2="17.6222">
			<stop offset="0" style="stop-color:#CA62A1"></stop>
			<stop offset="0.5857" style="stop-color:#EC6C7C"></stop>
			<stop offset="0.6072" style="stop-color:#ED707B"></stop>
			<stop offset="0.8698" style="stop-color:#F5A173"></stop>
			<stop offset="1" style="stop-color:#F8B470"></stop>
		</linearGradient>
		<path fill="url(#SVGID_00000155853042168030272170000015333348998719906228_)" d="M48.436,11.586    c-1.394-0.152-2.922,0.853-3.683,1.442c1.032,2.224,2.166,5.548,2.387,9.734c0.093,1.747,0.015,3.501-0.223,5.255    C55.073,22.307,49.545,11.707,48.436,11.586z"></path>
	</g>
</g>
<g>
	<g>
		
			<linearGradient id="SVGID_00000115500829321119728630000014253396346326790557_" gradientUnits="userSpaceOnUse" x1="41.6919" y1="36.2401" x2="62.3057" y2="50.674">
			<stop offset="0" style="stop-color:#CA62A1"></stop>
			<stop offset="0.4099" style="stop-color:#EC6C7C"></stop>
			<stop offset="0.6525" style="stop-color:#F49874"></stop>
			<stop offset="0.8785" style="stop-color:#FABB6E"></stop>
			<stop offset="1" style="stop-color:#FCC86C"></stop>
		</linearGradient>
		<path fill="url(#SVGID_00000115500829321119728630000014253396346326790557_)" d="M49.584,27.326    c-0.573,0.613-1.228,1.178-1.964,1.694l-1.712,1.199c-0.511,2.337-1.347,4.808-2.608,7.382c-0.426,0.869-0.859,1.693-1.299,2.473    l-0.236,0.414c0,0-2.546,9.258,4.102,13.192c2.09-8.842,5.493,0.362,14.275,0.086C65.343,37.941,53.394,29.541,49.584,27.326z"></path>
	</g>
</g>
<g>
	<g>
		
			<linearGradient id="SVGID_00000032636026472080353360000017762492949549374867_" gradientUnits="userSpaceOnUse" x1="27.3188" y1="30.7363" x2="41.7158" y2="40.8172">
			<stop offset="0" style="stop-color:#CA62A1"></stop>
			<stop offset="0.7033" style="stop-color:#CF649B"></stop>
			<stop offset="1" style="stop-color:#D36597"></stop>
		</linearGradient>
		<path fill="url(#SVGID_00000032636026472080353360000017762492949549374867_)" d="M45.328,30.625l0.376-2.773    c0.229-1.687,0.301-3.378,0.213-5.026c-0.217-4.089-1.357-7.305-2.275-9.283l-0.266-0.573l-0.213-0.467    c-0.102-0.223-0.261-0.42-0.472-0.544c-1.069-0.629-2.919,0.019-2.897,1.479l0.093,0.263c0.684,2.045,4.579,15.805-7.722,33.052    l-0.652,0.769c-2.111,2.359-4.843,4.221-8.058,5.303c-1.461,0.492-2.94,0.796-4.41,0.924l-0.973,0.058    c9.032,0.013,18.101-1.667,25.227-16.206c1.262-2.574,2.099-5.045,2.61-7.383L45.328,30.625z"></path>
	</g>
</g>
</svg>
