<?xml version="1.0" encoding="UTF-8"?>
<svg xmlns="http://www.w3.org/2000/svg" xmlns:xlink="http://www.w3.org/1999/xlink" version="1.1" id="Ebene_1" x="0px" y="0px" viewBox="0 0 186.933 121.561" xml:space="preserve">
<path fill="#1B38CE" d="M76.994,45.356c-1.892-6.24-6.518-10.096-10.065-12.232c-2.561-1.541-4.929-2.427-6.212-2.844  c1.986-3.099,2.062-6.487,1.739-8.879c0.551-0.966,1.879-2.501,4.886-3.03c0.755,2.071,2.75,3.488,4.979,3.488  c2.921,0,5.299-2.377,5.299-5.299s-2.377-5.299-5.299-5.299c-2.921,0-5.299,2.377-5.299,5.299c0,0.093,0.003,0.184,0.008,0.276  c-2.474,0.447-4.025,1.508-4.978,2.518c-0.114-0.441-0.247-0.884-0.398-1.325c0.32-0.324,0.776-0.857,1.182-1.605  c0.569-1.048,1.143-2.745,0.758-4.993c2.406-0.765,4.052-2.99,4.052-5.546c0-3.211-2.612-5.823-5.824-5.823  c-3.211,0-5.823,2.612-5.823,5.823c0,3.287,2.779,5.936,6.052,5.819c0.375,2.228-0.412,3.806-1.055,4.675  c-0.13-0.283-0.263-0.551-0.398-0.8c-1.093-2.027-1.776-2.101-2-2.125c-1.78-0.199-3.614,0.927-4.625,1.677  c-0.013-0.028-0.027-0.054-0.04-0.081c-0.791-1.566-2.464-1.778-3.652-1.485c-1.179,0.289-2.087,1.063-2.408,2.02  c-2.26-0.016-12.544-0.065-19.677,0.234c-11.88,0.5-19.464,7.416-19.759,7.691c-2.547,2.056-4.586,4.604-6.061,7.575  c-2.693,5.429-3.113,11.573-1.185,17.299C3.125,54.12,7.175,58.76,12.596,61.451c0.842,0.417,1.718,0.787,2.598,1.097  c0.345,0.125,0.692,0.239,1.044,0.343c2.072,0.619,4.229,0.933,6.41,0.933c0.317,0,0.634-0.007,0.931-0.02  c8.339-0.001,17.856-1.008,25.925-12.656c-0.048,0.837-0.044,1.657,0.01,2.453c0.313,4.511,2.261,7.95,5.633,9.946l0.915,0.542  l0.245-1.035c0.52-2.196,1.132-3.461,1.821-3.761c0.769-0.331,2.117,0.434,3.678,1.32c2.337,1.329,5.539,3.149,9.791,3.149  c0.096,0,0.194-0.001,0.3-0.003l0.36-0.018l0.204-0.029l0.024-0.015l0.195-0.157c0.412-0.381,2.081-2.025,3.425-4.79  C77.496,55.888,78.78,51.243,76.994,45.356z M61.823,1.628c0.106,0,0.21,0.004,0.314,0.012c-1.428,0.443-2.469,1.776-2.469,3.349  c0,1.933,1.573,3.506,3.506,3.506c1.076,0,2.041-0.488,2.685-1.254c-0.568,1.685-2.163,2.901-4.036,2.901  c-2.347,0-4.257-1.91-4.257-4.257S59.476,1.628,61.823,1.628z M63.175,6.929c-1.07,0-1.94-0.87-1.94-1.94s0.87-1.94,1.94-1.94  c1.07,0,1.94,0.87,1.94,1.94S64.244,6.929,63.175,6.929z M73.7,59.823c0.817-3.851,0.815-7.555-0.008-11.035  c-0.852-3.607-2.578-6.988-5.131-10.049c-2.951-3.538-6.405-5.855-8.251-6.945c1.247,0.41,3.443,1.246,5.812,2.672  c3.311,1.993,7.626,5.58,9.375,11.345c1.636,5.394,0.471,9.633-0.794,12.238C74.38,58.712,74.037,59.305,73.7,59.823z M51.54,47.916  c0.603-1.045,1.188-2.149,1.742-3.279c1.682-3.431,2.828-6.938,3.405-10.426c0.732-0.469,1.404-0.984,2.004-1.535  c1.279,0.683,5.301,3.025,8.676,7.075c2.393,2.872,4.01,6.036,4.804,9.404c0.957,4.057,0.721,8.442-0.704,13.037  c-3.777-0.039-6.607-1.646-8.892-2.945c-1.539-0.875-2.83-1.609-4.019-1.609c-0.359,0-0.709,0.067-1.053,0.217  c-1.058,0.46-1.821,1.628-2.438,3.756C49.405,57.37,51.332,48.771,51.54,47.916z M17.214,61.978l0.062-0.427l-0.1-0.026  c-0.48-0.131-0.957-0.278-1.425-0.443c-0.381-0.137-0.756-0.285-1.127-0.451c-3.409-1.527-5.938-4.104-7.121-7.257  c-1.153-3.074-0.982-6.407,0.48-9.385c1.622-3.301,4.711-5.86,8.475-7.019c1.479-0.455,3.014-0.686,4.561-0.686  c6.145,0,11.585,3.559,13.536,8.855c1.195,3.246,0.949,6.882-0.677,9.977c-1.693,3.218-4.619,5.498-8.239,6.421  c-2.734,0.695-5.612,0.705-8.322,0.024L17.214,61.978L17.214,61.978z M18.376,20.061L18.376,20.061L18.376,20.061L18.376,20.061z   M49.147,25.428l0.003,0.407l-0.076,2.543c-0.233,3.61-1.117,9.012-3.87,15.327c0.267-2.335,0.158-4.702-0.333-7.088  c-0.033-0.155-0.066-0.31-0.101-0.459l-0.19-0.771c-0.048-0.18-0.097-0.36-0.149-0.537l-0.066-0.222  c-0.07-0.237-0.144-0.473-0.224-0.708c-0.088-0.262-0.182-0.52-0.277-0.774l-0.053-0.14c-0.099-0.257-0.203-0.513-0.328-0.808  c-1.28-2.984-3.139-5.6-5.525-7.772l-0.076-0.069c-0.175-0.158-0.353-0.314-0.532-0.466l-0.48-0.394  c-2.462-1.98-5.254-3.4-8.299-4.221l-0.172-0.045l-0.001-0.001c-0.194-0.05-0.389-0.1-0.585-0.145  c-0.21-0.049-0.42-0.096-0.63-0.139l-0.092-0.019c-1.46-0.294-2.932-0.443-4.409-0.443c-0.53,0-1.06,0.019-1.592,0.057  c2.349-0.668,4.748-1.057,7.175-1.159c7.028-0.297,17.057-0.251,19.703-0.233C48.311,18.253,49.079,21.167,49.147,25.428z   M18.462,20.482c0.24-0.049,0.48-0.094,0.723-0.135l0.166-0.026c0.244-0.039,0.488-0.075,0.767-0.11  c0.243-0.029,0.486-0.054,0.733-0.075l0.166-0.014c0.241-0.019,0.485-0.034,0.723-0.044l0.151-0.005  c0.409-0.014,0.947-0.019,1.501-0.001l0.205,0.008c0.22,0.01,0.439,0.023,0.66,0.04l0.651,0.06  c5.394,0.586,10.303,3.177,13.819,7.297l0.196,0.234c0.085,0.101,0.168,0.204,0.249,0.304c0.115,0.145,0.229,0.291,0.34,0.439  l0.151,0.204c0.13,0.177,0.259,0.355,0.428,0.603c0.128,0.188,0.253,0.379,0.376,0.57l0.08,0.129  c0.131,0.208,0.259,0.418,0.416,0.693c0.119,0.207,0.234,0.416,0.35,0.637l0.04,0.075c0.117,0.222,0.23,0.448,0.339,0.677  l0.049,0.103c0.101,0.215,0.2,0.433,0.321,0.713c0.098,0.23,0.191,0.461,0.282,0.695l0.057,0.153  c0.09,0.235,0.176,0.472,0.257,0.714c0.058,0.168,0.111,0.337,0.164,0.506l0.149,0.505c0.039,0.14,0.077,0.279,0.113,0.418  l0.023,0.085c1.175,4.576,0.796,9.288-1.095,13.626l-0.036,0.079c-0.056,0.13-0.114,0.258-0.174,0.387l-0.667,1.317  c-0.661,1.045-1.351,2.075-2.03,3.03l-0.728,0.858c-1.833,2.049-4.094,3.74-6.637,4.956c1.439-1.182,2.63-2.645,3.524-4.346  c1.833-3.485,2.11-7.583,0.761-11.246c-2.228-6.05-8.409-9.879-15.014-9.879c-1.662,0-3.353,0.243-5.013,0.754  c-4.176,1.286-7.608,4.139-9.42,7.825c-1.655,3.369-1.847,7.143-0.54,10.626c0.054,0.145,0.111,0.29,0.171,0.433  c-1.537-1.92-2.737-4.112-3.533-6.474c-2.844-8.445-0.039-17.822,6.972-23.328c0.65-0.495,1.538-1.142,2.642-1.771  c0.374-0.21,0.754-0.412,1.132-0.596l0.912-0.415c0.516-0.221,1.055-0.428,1.6-0.614c0.242-0.081,0.486-0.157,0.736-0.231  l0.158-0.046c0.239-0.07,0.479-0.135,0.735-0.2l0.102-0.024c0.219-0.053,0.439-0.103,0.66-0.15L18.462,20.482z M38.467,59.268  c-1.688,0.88-3.454,1.543-5.397,2.018c2.647-1.365,5.01-3.243,6.92-5.514l0.022-0.027l0.274-0.332  c0.808-1.003,1.537-2.085,2.154-3.194c4.772-7.53,7.511-15.258,8.142-22.97l0.125-2.387c0.128-5.618-0.986-9.411-1.357-10.519  l-0.032-0.091c0.065-0.567,0.709-1.013,1.339-1.168c0.631-0.157,1.503-0.074,1.879,0.672c1.216,2.407,2.722,6.351,2.994,11.469  c0.105,1.993,0.012,4.022-0.276,6.036l-0.026,0.168l-0.029,0.198c-0.534,3.441-1.651,6.913-3.322,10.322  c-0.495,1.008-1.011,1.988-1.538,2.92l-0.12,0.2l-0.141,0.255C46.775,53.009,42.977,56.916,38.467,59.268z M56.97,32.085  c0.167-1.663,0.209-3.321,0.122-4.942c-0.195-3.701-1.018-7.25-2.443-10.556c0.724-0.573,2.321-1.672,3.671-1.586  c0.366,0.338,1.665,2.232,2.347,5.287C61.308,23.152,61.624,28.363,56.97,32.085z M16.327,19.845c-0.001,0-0.002,0-0.003,0.001  C16.326,19.845,16.326,19.845,16.327,19.845L16.327,19.845z M71.3,15.785c0-1.071,0.87-1.941,1.94-1.941  c1.07,0,1.94,0.87,1.94,1.941c0,1.07-0.87,1.94-1.94,1.94C72.17,17.725,71.3,16.854,71.3,15.785z M71.044,13.053  c-0.798,0.643-1.31,1.629-1.31,2.732c0,1.933,1.573,3.506,3.506,3.506c0.893,0,1.708-0.335,2.328-0.887  c-0.643,1.128-1.857,1.89-3.245,1.89c-2.058,0-3.733-1.675-3.733-3.733C68.589,14.951,69.613,13.576,71.044,13.053z"></path>
<polygon fill="#1B38CE" points="17.026,92.21 17.026,73.993 12.341,73.993 12.341,82.841 4.69,82.841 4.69,73.993 0.006,73.993   0.006,92.21 4.69,92.21 4.69,83.049 12.341,83.049 12.341,92.21 "></polygon>
<path fill="#1B38CE" d="M33.966,89.152c0.711-1.067,1.067-2.32,1.067-3.761c0-1.457-0.356-2.719-1.067-3.786  c-0.712-1.067-1.653-1.878-2.824-2.434c-1.171-0.555-2.442-0.833-3.812-0.833c-1.353,0-2.62,0.278-3.799,0.833  c-1.18,0.556-2.126,1.367-2.837,2.434c-0.712,1.067-1.067,2.329-1.067,3.786c0,1.44,0.355,2.694,1.067,3.761  c0.711,1.067,1.656,1.878,2.837,2.433c1.18,0.556,2.446,0.833,3.799,0.833c1.37,0,2.641-0.277,3.812-0.833  C32.313,91.03,33.255,90.219,33.966,89.152z M29.737,90.492c-0.425,1.145-1.227,1.718-2.407,1.718c-1.18,0-1.983-0.573-2.408-1.718  s-0.637-2.845-0.637-5.101c0-2.238,0.212-3.938,0.637-5.101c0.425-1.162,1.227-1.744,2.408-1.744c1.18,0,1.982,0.586,2.407,1.757  c0.425,1.171,0.638,2.867,0.638,5.087C30.375,87.647,30.162,89.347,29.737,90.492z"></path>
<path fill="#1B38CE" d="M56.97,78.339c-1.04,0-2.029,0.3-2.966,0.898c-0.937,0.599-1.848,1.462-2.733,2.589  c-0.035-1.127-0.413-1.99-1.132-2.589c-0.72-0.599-1.635-0.898-2.745-0.898c-1.041,0-2.026,0.304-2.954,0.911  c-0.928,0.608-1.843,1.475-2.745,2.602v-3.513l-4.32,0.625V92.21h4.32V82.164c1.318-1.682,2.515-2.524,3.591-2.524  c0.729,0,1.188,0.243,1.379,0.729c0.191,0.486,0.286,1.102,0.286,1.848v9.993h4.32V82.164c0.677-0.867,1.301-1.504,1.874-1.912  c0.573-0.407,1.145-0.612,1.718-0.612c0.729,0,1.188,0.243,1.379,0.729c0.191,0.486,0.286,1.102,0.286,1.848v9.993h4.32V82.008  c0-1.18-0.36-2.085-1.08-2.719C59.048,78.656,58.115,78.339,56.97,78.339z"></path>
<path fill="#1B38CE" d="M77.686,86.797c-0.486,1.111-1.158,1.969-2.017,2.576c-0.859,0.608-1.826,0.911-2.901,0.911  c-1.683,0-2.936-0.542-3.761-1.626c-0.824-1.085-1.236-2.442-1.236-4.073v-0.573h9.265c0.069-0.364,0.104-0.755,0.104-1.171  c0-1.405-0.517-2.507-1.549-3.305c-1.033-0.798-2.476-1.197-4.333-1.197c-1.509,0-2.876,0.291-4.099,0.872  c-1.223,0.582-2.19,1.418-2.901,2.511c-0.712,1.093-1.067,2.368-1.067,3.826c0,1.284,0.29,2.446,0.871,3.487  c0.582,1.041,1.41,1.865,2.486,2.472c1.075,0.608,2.342,0.911,3.799,0.911c1.77,0,3.305-0.511,4.606-1.535  c1.301-1.023,2.273-2.359,2.915-4.008L77.686,86.797z M68.76,80.03c0.555-0.989,1.31-1.483,2.264-1.483  c1.422,0,2.134,1.093,2.134,3.279c0,0.729-0.07,1.388-0.208,1.978h-5.153C67.883,82.278,68.204,81.019,68.76,80.03z"></path>
<path fill="#1B38CE" d="M98.634,82.23c-0.954-0.425-2.204-0.889-3.747-1.393c-1.249-0.399-2.23-0.746-2.941-1.041  c-0.712-0.295-1.306-0.663-1.783-1.106c-0.477-0.442-0.715-0.985-0.715-1.627c0-0.971,0.455-1.713,1.366-2.225  c0.911-0.511,2.104-0.768,3.579-0.768c1.214,0,2.299,0.161,3.253,0.482c0.954,0.321,1.7,0.781,2.238,1.379  c0.537,0.599,0.807,1.297,0.807,2.095c0,0.538-0.113,1.033-0.338,1.483l0.156,0.078c0.26-0.451,0.39-0.971,0.39-1.561  c0-0.867-0.291-1.617-0.872-2.251c-0.582-0.633-1.405-1.123-2.472-1.471c-1.067-0.347-2.32-0.52-3.76-0.52  c-1.527,0-2.902,0.222-4.125,0.664c-1.223,0.442-2.182,1.067-2.875,1.874c-0.694,0.807-1.041,1.756-1.041,2.849  c0,1.041,0.329,1.922,0.989,2.642c0.659,0.72,1.448,1.293,2.368,1.718c0.919,0.425,2.151,0.907,3.695,1.444  c1.266,0.434,2.264,0.812,2.993,1.132s1.34,0.72,1.834,1.197c0.494,0.477,0.742,1.045,0.742,1.704c0,1.041-0.517,1.822-1.549,2.342  c-1.033,0.52-2.268,0.781-3.708,0.781c-1.475,0-2.785-0.173-3.93-0.52c-1.145-0.347-2.034-0.845-2.668-1.496  c-0.633-0.651-0.95-1.41-0.95-2.277c0-0.589,0.147-1.127,0.442-1.613L85.83,86.12c-0.312,0.538-0.468,1.111-0.468,1.718  c0,0.92,0.338,1.727,1.015,2.42c0.677,0.694,1.618,1.227,2.823,1.601c1.206,0.373,2.59,0.559,4.151,0.559  c1.63,0,3.105-0.212,4.424-0.637c1.318-0.426,2.363-1.063,3.136-1.913c0.772-0.85,1.158-1.9,1.158-3.149  c0-1.093-0.335-2.008-1.002-2.745C100.398,83.236,99.587,82.655,98.634,82.23z"></path>
<path fill="#1B38CE" d="M110.084,89.685v-10.93h2.446v-0.208h-2.446v-4.242h-0.104l-4.216,4.242h-1.978v0.208h1.978v10.201  c0,1.18,0.317,2.052,0.95,2.616c0.634,0.563,1.471,0.845,2.512,0.845c1.266,0,2.455-0.355,3.565-1.067v-0.208  c-0.434,0.226-0.876,0.338-1.327,0.338C110.543,91.481,110.084,90.882,110.084,89.685z"></path>
<path fill="#1B38CE" d="M123.851,81.488c-0.278-0.954-0.776-1.718-1.497-2.29s-1.661-0.859-2.823-0.859  c-1.909,0-3.396,0.69-4.463,2.069c-1.067,1.379-1.6,3.205-1.6,5.478c0,1.995,0.477,3.583,1.431,4.762  c0.954,1.18,2.246,1.77,3.878,1.77c0.971,0,1.9-0.26,2.785-0.781s1.666-1.37,2.342-2.55l0.599,3.123h3.539V78.547h-3.539  L123.851,81.488z M123.799,88.774c-0.434,0.868-0.933,1.527-1.497,1.978c-0.564,0.452-1.149,0.677-1.756,0.677  c-0.729,0-1.271-0.286-1.627-0.859s-0.577-1.266-0.663-2.082c-0.087-0.815-0.13-1.822-0.13-3.019c0-4.094,0.98-6.142,2.941-6.142  c0.537,0,1.015,0.17,1.431,0.508c0.416,0.338,0.737,0.767,0.963,1.288c0.225,0.52,0.338,1.059,0.338,1.613V88.774z"></path>
<path fill="#1B38CE" d="M140.766,81.488c-0.278-0.954-0.777-1.718-1.497-2.29c-0.72-0.573-1.661-0.859-2.823-0.859  c-1.909,0-3.396,0.69-4.463,2.069c-1.067,1.379-1.6,3.205-1.6,5.478c0,1.995,0.477,3.583,1.431,4.762  c0.954,1.18,2.247,1.77,3.878,1.77c0.971,0,1.895-0.256,2.771-0.767c0.876-0.512,1.644-1.341,2.303-2.486v3.331  c0,1.666-0.364,2.979-1.093,3.942s-1.909,1.445-3.539,1.445c-0.59,0-1.193-0.113-1.809-0.338c-0.615-0.226-1.136-0.59-1.561-1.093  c-0.425-0.504-0.637-1.128-0.637-1.874c0-0.26,0.043-0.52,0.13-0.781c0.087-0.26,0.208-0.478,0.364-0.651l-0.156-0.13  c-0.156,0.173-0.286,0.403-0.39,0.689s-0.156,0.577-0.156,0.872c0,1.266,0.547,2.199,1.64,2.797s2.359,0.898,3.799,0.898  c2.29,0,4.129-0.452,5.517-1.353c1.388-0.902,2.082-2.481,2.082-4.736V78.547h-3.539L140.766,81.488z M140.714,88.774  c-0.434,0.868-0.933,1.527-1.497,1.978c-0.564,0.452-1.149,0.677-1.756,0.677c-0.729,0-1.271-0.286-1.627-0.859  s-0.577-1.266-0.663-2.082c-0.087-0.815-0.13-1.822-0.13-3.019c0-4.094,0.98-6.142,2.941-6.142c0.537,0,1.015,0.17,1.431,0.508  c0.416,0.338,0.737,0.767,0.963,1.288c0.225,0.52,0.338,1.059,0.338,1.613V88.774z"></path>
<path fill="#1B38CE" d="M182.143,81.488c-0.278-0.954-0.776-1.718-1.497-2.29s-1.661-0.859-2.823-0.859  c-1.909,0-3.396,0.69-4.463,2.069c-1.067,1.379-1.6,3.205-1.6,5.478c0,1.995,0.477,3.583,1.431,4.762  c0.954,1.18,2.246,1.77,3.878,1.77c0.971,0,1.895-0.256,2.771-0.767c0.876-0.512,1.644-1.341,2.303-2.486v3.331  c0,1.666-0.364,2.979-1.093,3.942s-1.909,1.445-3.539,1.445c-0.59,0-1.193-0.113-1.809-0.338c-0.615-0.226-1.136-0.59-1.561-1.093  c-0.425-0.504-0.637-1.128-0.637-1.874c0-0.26,0.043-0.52,0.13-0.781c0.087-0.26,0.208-0.478,0.364-0.651l-0.156-0.13  c-0.156,0.173-0.286,0.403-0.39,0.689s-0.156,0.577-0.156,0.872c0,1.266,0.546,2.199,1.639,2.797s2.359,0.898,3.799,0.898  c2.29,0,4.129-0.452,5.517-1.353c1.388-0.902,2.082-2.481,2.082-4.736V78.547h-3.539L182.143,81.488z M182.091,88.774  c-0.434,0.868-0.933,1.527-1.497,1.978c-0.564,0.452-1.149,0.677-1.756,0.677c-0.729,0-1.271-0.286-1.627-0.859  c-0.356-0.573-0.577-1.266-0.663-2.082c-0.087-0.815-0.13-1.822-0.13-3.019c0-4.094,0.98-6.142,2.941-6.142  c0.537,0,1.015,0.17,1.431,0.508c0.416,0.338,0.737,0.767,0.963,1.288c0.225,0.52,0.338,1.059,0.338,1.613V88.774z"></path>
<path fill="#1B38CE" d="M149.978,72.093c-0.694,0-1.289,0.248-1.783,0.742c-0.494,0.494-0.741,1.089-0.741,1.782  c0,0.694,0.247,1.293,0.741,1.796c0.494,0.504,1.089,0.755,1.783,0.755c0.711,0,1.314-0.247,1.808-0.741  c0.494-0.494,0.742-1.097,0.742-1.809c0-0.711-0.248-1.31-0.742-1.796C151.292,72.337,150.689,72.093,149.978,72.093z"></path>
<polygon fill="#1B38CE" points="147.818,92.21 152.164,92.21 152.164,78.339 147.818,78.963 "></polygon>
<path fill="#1B38CE" d="M165.331,78.339c-2.117,0-4.112,1.163-5.985,3.487v-0.104l-0.234-3.383l-4.086,0.625V92.21h4.32V82.164  c1.318-1.682,2.541-2.524,3.669-2.524c0.815,0,1.331,0.243,1.548,0.729c0.217,0.486,0.326,1.102,0.326,1.848v9.993h4.32V82.008  c0-1.18-0.364-2.085-1.093-2.719C167.387,78.656,166.459,78.339,165.331,78.339z"></path>
<path fill="#1B38CE" d="M6.12,105.062c-2.526,0-4.381,1.252-4.891,3.338H1.206c0.023-0.672,0.047-1.599,0.047-2.016v-5.75H0V116.7  h1.252c-0.047-0.603-0.07-1.785-0.07-2.852h0.023c0.533,1.762,2.272,3.037,4.891,3.037c3.176,0,5.355-2.342,5.355-6.12  C11.453,107.264,9.366,105.062,6.12,105.062z M5.842,115.749c-2.828,0-4.59-1.808-4.59-4.08v-0.626c0-3.037,1.854-4.845,4.659-4.845  c2.597,0,4.289,1.762,4.289,4.59C10.2,113.871,8.392,115.749,5.842,115.749z"></path>
<path fill="#1B38CE" d="M18.756,115.471H18.71l-4.59-10.224h-1.484l5.216,11.452h0.418c-1.206,2.898-1.762,3.686-3.153,3.686  c-0.51,0-1.02-0.14-1.298-0.232v1.067c0.301,0.139,0.881,0.278,1.437,0.278c2.017,0,2.828-1.09,4.219-4.637l4.637-11.615h-1.298  L18.756,115.471z"></path>
<polygon fill="#1B38CE" points="33.317,109.536 40.249,109.536 40.249,108.517 33.317,108.517 33.317,102.651 41.779,102.651   41.779,101.446 32.019,101.446 32.019,116.7 41.988,116.7 41.988,115.494 33.317,115.494 "></polygon>
<rect x="44.654" y="100.634" fill="#1B38CE" width="1.252" height="16.066"></rect>
<path fill="#1B38CE" d="M54.229,105.062c-3.014,0-4.938,1.344-4.938,3.593c0,0.231,0.023,0.556,0.047,0.696h1.159  c-0.023-0.162-0.023-0.371-0.023-0.533c0-1.716,1.414-2.666,3.732-2.666c2.504,0,3.964,1.136,3.964,3.292v1.067h-5.1  c-3.013,0-4.127,1.344-4.127,2.967c0,2.11,1.716,3.408,4.243,3.408c2.805,0,4.543-1.229,5.007-3.153h0.023  c0,1.089-0.047,2.318-0.047,2.967h1.252v-7.164C59.423,106.685,57.452,105.062,54.229,105.062z M58.171,111.623  c0,2.596-1.877,4.172-4.752,4.172c-1.97,0-3.292-0.881-3.292-2.318c0-1.229,0.811-2.017,3.06-2.017h4.984V111.623z"></path>
<path fill="#1B38CE" d="M68.836,105.062c-2.735,0-4.451,1.275-5.077,3.361h-0.023l0.047-3.176H62.53V116.7h1.252v-5.865  c0-2.945,1.901-4.637,4.683-4.637c2.62,0,3.964,1.321,3.964,3.64v6.862h1.252v-7.094C73.681,106.731,71.896,105.062,68.836,105.062z  "></path>
<path fill="#1B38CE" d="M81.727,105.062c-3.014,0-4.938,1.344-4.938,3.593c0,0.231,0.023,0.556,0.047,0.696h1.159  c-0.023-0.162-0.023-0.371-0.023-0.533c0-1.716,1.414-2.666,3.732-2.666c2.504,0,3.964,1.136,3.964,3.292v1.067h-5.1  c-3.013,0-4.126,1.344-4.126,2.967c0,2.11,1.716,3.408,4.243,3.408c2.805,0,4.543-1.229,5.007-3.153h0.023  c0,1.089-0.047,2.318-0.047,2.967h1.252v-7.164C86.92,106.685,84.95,105.062,81.727,105.062z M85.668,111.623  c0,2.596-1.877,4.172-4.752,4.172c-1.97,0-3.292-0.881-3.292-2.318c0-1.229,0.811-2.017,3.06-2.017h4.984V111.623z"></path>
</svg>
