<?xml version="1.0" encoding="UTF-8"?>
<svg xmlns="http://www.w3.org/2000/svg" xmlns:xlink="http://www.w3.org/1999/xlink" version="1.1" id="Ebene_1" x="0px" y="0px" viewBox="0 0 500 500" xml:space="preserve">
<g>
	<path fill="#FFFFFF" d="M104.851,434.552c23.26-25.659-13.744-62.663-39.403-39.403c-0.64,0.573-1.262,1.164-1.866,1.777   c-17.885,17.885-31.558,57.718-31.709,67.603c-0.027,2.017,1.581,3.625,3.598,3.598c9.888-0.142,49.718-13.824,67.603-31.709   C103.687,435.809,104.274,435.187,104.851,434.552z"></path>
	<path fill="#FFFFFF" d="M61.357,365.212c19.555-21.572-11.559-52.685-33.131-33.122c-0.533,0.48-1.057,0.977-1.564,1.488   C11.621,348.616,0.125,382.106,0,390.418c-0.027,1.692,1.333,3.047,3.021,3.021c8.316-0.12,41.802-11.621,56.843-26.658   C60.371,366.269,60.877,365.745,61.357,365.212z"></path>
	<path fill="#FFFFFF" d="M134.788,438.643c-0.533,0.484-1.057,0.982-1.573,1.493c-15.033,15.037-26.529,48.528-26.654,56.839   c-0.027,1.693,1.324,3.047,3.021,3.025c8.316-0.124,41.802-11.621,56.843-26.658c0.506-0.511,1.004-1.035,1.493-1.568   C187.474,450.197,156.36,419.088,134.788,438.643z"></path>
	<path fill="#FFFFFF" d="M405.38,271.83c76.402-90.767,95.678-217.375,93.405-256.029c-0.177-4.368-1.908-8.095-4.722-10.915   c-2.731-2.726-6.547-4.545-10.915-4.722c-38.571-2.189-165.262,16.997-256.03,93.405l-21.099-7.641   c-36.935-13.458-78.227-2.544-103.694,27.287l-58.211,68.573c-8.183,9.643-4.274,24.649,7.641,28.928l62.756,22.919   c-13.552,23.012-23.184,42.835-29.377,56.293c-5.004,11.191-2.637,24.289,6.088,33.025l84.867,84.857   c8.642,8.642,21.735,11.003,32.932,5.999c13.552-6.093,33.276-15.825,56.377-29.288l22.83,62.673   c4.368,12.004,19.379,15.908,29.022,7.725l68.48-58.295c29.929-25.379,40.844-66.671,27.386-103.6L405.38,271.83z M365.631,206.259   c-20.099,20.104-52.749,20.193-72.941,0c-20.099-20.104-20.109-52.848,0-72.947c20.193-20.192,52.843-20.099,72.941,0   C385.823,153.505,385.823,186.067,365.631,206.259z"></path>
</g>
</svg>
