<?xml version="1.0" encoding="UTF-8"?>
<svg xmlns="http://www.w3.org/2000/svg" xmlns:xlink="http://www.w3.org/1999/xlink" version="1.1" id="Ebene_1" x="0px" y="0px" viewBox="0 0 438.236 500" xml:space="preserve">
<path fill="#FFFFFF" d="M238.689,62.874V40.619h29.453c3.659,0,6.624-2.965,6.624-6.624V6.624c0-3.658-2.965-6.624-6.624-6.624  h-99.526c-3.658,0-6.624,2.966-6.624,6.624v27.371c0,3.659,2.966,6.624,6.624,6.624h29.454v22.368  C87.089,73.613,0,167.348,0,281.072c0,120.82,98.294,219.113,219.113,219.113c120.824,0,219.122-98.294,219.122-219.113  C438.236,166.849,350.371,72.814,238.689,62.874z M219.113,453.931c-95.317,0-172.86-77.543-172.86-172.86  s77.542-172.864,172.86-172.864c95.321,0,172.868,77.547,172.868,172.864S314.435,453.931,219.113,453.931z M366.452,281.072  c0,44.864-20.492,87.358-55.599,115.292l-91.739-115.292l-0.968-147.334c0.323-0.001,0.646-0.003,0.968-0.003  C299.942,133.735,366.452,200.245,366.452,281.072z M359.71,95.745c-2.859-2.859-2.859-7.494,0-10.353l18.809-18.809  c2.859-2.859,7.494-2.859,10.353,0l45.337,45.338c2.859,2.859,2.859,7.494,0,10.353l-18.808,18.809  c-2.859,2.859-7.494,2.859-10.353,0L359.71,95.745z"></path>
</svg>
