<svg version="1.2" xmlns="http://www.w3.org/2000/svg" viewBox="0 0 24 18" width="24" height="18">
	<title>email-icon-svg</title>
	<style>
		.s0 { fill: #133dca } 
	</style>
	<path id="Layer" fill-rule="evenodd" class="s0" d="m12.9 8.9l10.6-8.5c0.2-0.2 0.1-0.4-0.1-0.4h-22.8c-0.2 0-0.3 0.2-0.1 0.4l10.6 8.5c0.5 0.5 1.3 0.5 1.8 0zm-6.5-1.1l-6.1-5c-0.1-0.1-0.3 0-0.3 0.2v11.6c0 0.2 0.2 0.3 0.3 0.1l6.1-6.7c0.1 0 0.1-0.2 0-0.2zm11.2 0.2l6.1 6.6c0.1 0.1 0.3 0 0.3-0.1v-11.5c0-0.2-0.2-0.3-0.3-0.2l-6.1 4.9c-0.1 0.1-0.1 0.3 0 0.3zm-1.9 1.3l-2.8 2.3c-0.6 0.4-1.3 0.4-1.9 0l-2.7-2.3q-0.1-0.2-0.3 0l-7.7 8.4c-0.1 0.1 0 0.3 0.1 0.3h23c0.2 0 0.3-0.2 0.1-0.3l-7.5-8.4q-0.1-0.2-0.3 0z"/>
</svg>