<?xml version="1.0" encoding="utf-8"?>
<!-- Generator: Adobe Illustrator 27.2.0, SVG Export Plug-In . SVG Version: 6.00 Build 0)  -->
<svg version="1.1" id="Ebene_1" xmlns="http://www.w3.org/2000/svg" xmlns:xlink="http://www.w3.org/1999/xlink" x="0px" y="0px"
	 viewBox="0 0 64.511 53.82" enable-background="new 0 0 64.511 53.82" xml:space="preserve">
<g>
	<g>
		<path fill="#1B38CE" d="M63.779,38.718c-2.435-8.03-10.25-11.437-13.3-12.483c-0.226,0.314-0.634,0.799-0.896,1.092L60.165,53.82
			C60.165,53.82,66.646,48.172,63.779,38.718z"/>
	</g>
</g>
<g>
	<g>
		<g>
			<path fill="#1B38CE" d="M50.362,18.722c-0.084,0-0.17-0.017-0.251-0.054c-0.307-0.139-0.445-0.498-0.307-0.806
				c0.065-0.145,1.647-3.564,6.787-4.126c0.334-0.036,0.638,0.206,0.675,0.542s-0.206,0.639-0.542,0.675
				c-4.41,0.482-5.749,3.292-5.804,3.411C50.817,18.589,50.594,18.722,50.362,18.722z"/>
		</g>
	</g>
</g>
<g>
	<g>
		<g>
			<path fill="#1B38CE" d="M50.363,15.285c-0.185,0-0.368-0.084-0.488-0.242c-0.204-0.269-0.152-0.652,0.116-0.856
				c0.098-0.076,2.346-1.866,1.454-5.357c-0.084-0.328,0.114-0.661,0.441-0.745c0.328-0.084,0.661,0.114,0.745,0.441
				c1.1,4.303-1.775,6.542-1.898,6.635C50.622,15.245,50.492,15.285,50.363,15.285z"/>
		</g>
	</g>
</g>
<g>
	<g>
		<path fill="#1B38CE" d="M32.296,46.845c13.343-18.71,7.496-33.407,7.496-33.407s-10.505-0.099-17.567,0.198
			c-10.336,0.435-16.694,6.5-16.694,6.5c1.502-1.154,3.152-2.279,5.838-3.195c9.909-3.337,20.648,1.991,23.985,11.9
			c1.718,5.101,1.14,10.421-1.177,14.838"/>
	</g>
</g>
<g>
	<g>
		<path fill="#1B38CE" d="M27.187,38.523c-1.61-4.371-6.107-7.307-11.189-7.307l0,0c-1.288,0-2.566,0.192-3.798,0.572
			c-3.114,0.959-5.667,3.07-7.005,5.792c-1.199,2.44-1.339,5.171-0.394,7.689c0.565,1.506,1.506,2.838,2.716,3.933
			c2.84,1.964,6.265,3.088,9.892,3.088c0.421,0,0.84-0.018,1.259-0.048c0.397-0.066,0.791-0.147,1.181-0.246
			c2.981-0.76,5.389-2.636,6.781-5.282C27.965,44.173,28.168,41.188,27.187,38.523z"/>
	</g>
</g>
<g>
	<g>
		<path fill="#1B38CE" d="M17.413,17.476c-1.884,0-3.753,0.308-5.556,0.915c-4.405,1.483-7.969,4.594-10.035,8.757
			s-2.387,8.883-0.903,13.288c0.614,1.824,1.511,3.493,2.629,4.967c-2.108-6.135,1.583-12.722,8.291-14.787
			c1.378-0.424,2.78-0.626,4.157-0.626c5.437,0,10.508,3.137,12.339,8.109c1.616,4.388,0.321,9.2-2.999,12.279
			c3.31-1.684,5.982-4.374,7.662-7.761c2.066-4.164,2.387-8.883,0.903-13.288C31.514,22.239,24.887,17.476,17.413,17.476"/>
	</g>
</g>
<g>
	<g>
		<circle fill="#C8D7F0" cx="51.405" cy="4.362" r="4.362"/>
	</g>
</g>
<g>
	<g>
		<circle fill="#1B38CE" cx="52.574" cy="3.587" r="2.356"/>
	</g>
</g>
<g>
	<g>
		<circle fill="#C8D7F0" cx="60.491" cy="13.583" r="3.908"/>
	</g>
</g>
<g>
	<g>
		<circle fill="#1B38CE" cx="61.277" cy="12.929" r="2.356"/>
	</g>
</g>
<g>
	<g>
		<path fill="none" stroke="#DAE067" stroke-width="3" stroke-miterlimit="10" d="M34.176,43.679"/>
	</g>
</g>
<g>
	<g>
		<path fill="#1B38CE" d="M48.434,11.586c-1.394-0.152-2.922,0.853-3.683,1.442c1.032,2.224,2.166,5.548,2.387,9.734
			c0.093,1.747,0.015,3.501-0.223,5.255C55.071,22.307,49.543,11.707,48.434,11.586z"/>
	</g>
</g>
<g>
	<g>
		<path fill="#C8D7F0" d="M49.582,27.327c-0.573,0.613-1.228,1.178-1.964,1.694l-1.712,1.199c-0.511,2.337-1.347,4.808-2.608,7.382
			c-0.426,0.869-0.859,1.693-1.299,2.473l-0.236,0.414c0,0-2.546,9.258,4.102,13.192c2.09-8.842,5.493,0.362,14.275,0.086
			C65.342,37.941,53.392,29.541,49.582,27.327z"/>
	</g>
</g>
<g>
	<g>
		<path fill="#C8D7F0" d="M45.326,30.625l0.376-2.773c0.229-1.687,0.301-3.378,0.213-5.026c-0.217-4.089-1.357-7.305-2.275-9.283
			l-0.266-0.573l-0.213-0.467c-0.102-0.223-0.261-0.42-0.472-0.544c-1.069-0.629-2.919,0.019-2.897,1.479l0.093,0.263
			c0.684,2.045,4.579,15.805-7.722,33.052l-0.652,0.769c-2.111,2.359-4.843,4.221-8.058,5.303c-1.461,0.492-2.94,0.796-4.41,0.924
			l-0.973,0.058c9.032,0.013,18.101-1.667,25.227-16.206c1.262-2.574,2.099-5.045,2.61-7.383L45.326,30.625z"/>
	</g>
</g>
</svg>
