<?xml version="1.0" encoding="utf-8"?>
<!-- Generator: Adobe Illustrator 27.2.0, SVG Export Plug-In . SVG Version: 6.00 Build 0)  -->
<svg version="1.1" id="Ebene_1" xmlns="http://www.w3.org/2000/svg" xmlns:xlink="http://www.w3.org/1999/xlink" x="0px" y="0px"
	 viewBox="0 0 500 500" enable-background="new 0 0 500 500" xml:space="preserve">
<path fill="#1B38CE" d="M484.336,369.781v111.192c0,10.042-8.015,18.43-18.057,18.5C180.832,501.472-29.539,265.759,3.398,16.236
	C4.595,7.172,12.552,0.515,21.695,0.515l115.014,0c9.59,0,17.589,7.33,18.424,16.883l10.29,117.691
	c0.456,5.221-1.323,10.39-4.897,14.223l-59.569,63.891c-2.887,3.097-3.333,7.805-1.056,11.374
	c44,68.994,97.176,126.918,160.697,172.603c3.394,2.441,8.04,2.276,11.288-0.357l63.865-51.767c3.726-3.02,8.479-4.475,13.257-4.057
	l118.446,10.357C477.006,352.192,484.336,360.191,484.336,369.781z"/>
</svg>
