<?xml version="1.0" encoding="utf-8"?>
<!-- Generator: Adobe Illustrator 27.2.0, SVG Export Plug-In . SVG Version: 6.00 Build 0)  -->
<svg version="1.1" id="Ebene_1" xmlns="http://www.w3.org/2000/svg" xmlns:xlink="http://www.w3.org/1999/xlink" x="0px" y="0px"
	 viewBox="0 0 202.608 30.93" enable-background="new 0 0 202.608 30.93" xml:space="preserve">
<polygon fill="#FBC86D" points="21.286,10.181 32.522,11.814 24.391,19.739 26.311,30.93 16.261,25.646 6.211,30.93 8.13,19.739 
	0,11.814 11.236,10.182 16.261,0 "/>
<polygon fill="#FBC86D" points="63.807,10.181 75.043,11.814 66.913,19.739 68.832,30.93 58.782,25.646 48.733,30.93 50.652,19.739 
	42.522,11.814 53.757,10.182 58.782,0 "/>
<polygon fill="#FBC86D" points="106.329,10.181 117.565,11.814 109.434,19.739 111.354,30.93 101.304,25.646 91.254,30.93 
	93.174,19.739 85.043,11.814 96.279,10.182 101.304,0 "/>
<polygon fill="#FBC86D" points="148.85,10.181 160.086,11.814 151.956,19.739 153.875,30.93 143.826,25.646 133.776,30.93 
	135.695,19.739 127.565,11.814 138.801,10.182 143.825,0 "/>
<polygon fill="#FBC86D" points="191.372,10.181 202.608,11.814 194.477,19.739 196.397,30.93 186.347,25.646 176.297,30.93 
	178.217,19.739 170.086,11.814 181.322,10.182 186.347,0 "/>
</svg>
