<?xml version="1.0" encoding="utf-8"?>
<!-- Generator: Adobe Illustrator 27.4.0, SVG Export Plug-In . SVG Version: 6.00 Build 0)  -->
<svg version="1.1" id="Ebene_1" xmlns="http://www.w3.org/2000/svg" xmlns:xlink="http://www.w3.org/1999/xlink" x="0px" y="0px"
	 viewBox="0 0 1743.9 53.1" style="enable-background:new 0 0 1743.9 53.1;" xml:space="preserve">
<style type="text/css">
	.st0{fill:none;stroke:#1B38CE;stroke-width:3;stroke-miterlimit:10;}
</style>
<path class="st0" d="M1.8,48.4l22.7-22.7c27.1-27.1,70.9-27.1,98,0l1.2,1.2c27.1,27.1,70.9,27.1,98,0l0.3-0.3
	c27.1-27.1,70.9-27.1,98,0l0,0c27.1,27.1,70.9,27.1,98,0l1.2-1.2c27.1-27.1,70.9-27.1,98,0l1.9,1.9c27.1,27.1,70.9,27.1,98,0
	l1.4-1.4c27.1-27.1,70.9-27.1,98,0l2,2c27.1,27.1,70.9,27.1,98,0l3.1-3.1c27.1-27.1,70.9-27.1,98,0l2.2,2.2
	c27.1,27.1,70.9,27.1,98,0l0.9-0.9c27.1-27.1,70.9-27.1,98,0l1.9,1.9c27.1,27.1,70.9,27.1,98,0l2.5-2.5c27.1-27.1,70.9-27.1,98,0
	l1.9,1.9c27.1,27.1,70.9,27.1,98,0l1.2-1.2c27.1-27.1,70.9-27.1,98,0l2.5,2.5c27.1,27.1,70.9,27.1,98,0l3.7-3.7
	c27.1-27.1,70.9-27.1,98,0l23.7,23.7"/>
</svg>
